<svg xmlns="http://www.w3.org/2000/svg" viewBox="0 0 64 64">
  <!-- Octagonle / weiddle mark: the cage (octagon) around the guess "?" -->
  <rect width="64" height="64" rx="10" fill="#990000"/>
  <polygon points="58.4,44.1 44.1,58.4 19.9,58.4 5.6,44.1 5.6,19.9 19.9,5.6 44.1,5.6 58.4,19.9"
           fill="#f4ecd6"/>
  <path d="M23.6 24.4c0-5.2 3.8-8.8 9-8.8 5.1 0 8.8 3.3 8.8 8 0 3.8-2 6-5.3 8.1-2.5 1.6-3.2 2.5-3.2 4.7v1.9h-6.6v-2.5c0-3.8 1.3-5.9 4.8-8.1 2.7-1.7 3.5-2.7 3.5-4.3 0-1.7-1.3-2.9-3.3-2.9-2.1 0-3.4 1.3-3.4 4z"
        fill="#161327"/>
  <circle cx="32.4" cy="47.2" r="4" fill="#161327"/>
</svg>
